<?xml version="1.0" standalone="no"?>
<!DOCTYPE svg PUBLIC "-//W3C//DTD SVG 20010904//EN"
 "http://www.w3.org/TR/2001/REC-SVG-20010904/DTD/svg10.dtd">
<svg version="1.0" xmlns="http://www.w3.org/2000/svg"
 width="1552.000000pt" height="1552.000000pt" viewBox="0 0 1552.000000 1552.000000"
 preserveAspectRatio="xMidYMid meet">
<metadata>
Created by potrace 1.14, written by Peter Selinger 2001-2017
</metadata>
<g transform="translate(0.000000,1552.000000) scale(0.100000,-0.100000)"
fill="#000000" stroke="none">
<path d="M3681 11534 c-113 -30 -232 -108 -302 -196 -86 -109 -123 -217 -123
-358 0 -157 55 -294 165 -405 27 -28 49 -54 49 -57 0 -4 -44 -81 -97 -171 -54
-90 -120 -205 -148 -255 -49 -91 -50 -92 -80 -85 -16 5 -68 8 -115 8 -103 -1
-156 -21 -230 -91 -156 -146 -142 -403 30 -529 68 -50 122 -67 211 -67 305 -1
456 367 242 590 -23 25 -43 47 -43 48 0 2 40 65 88 141 49 76 119 189 156 251
54 89 72 112 85 107 111 -47 126 -50 251 -50 105 0 136 4 192 23 178 61 328
231 369 416 l13 58 35 -6 c20 -4 138 -9 264 -13 226 -6 227 -6 227 -28 0 -35
27 -102 55 -139 29 -38 103 -81 156 -90 139 -25 279 98 279 244 0 146 -140
269 -279 244 -81 -14 -164 -79 -191 -148 -11 -30 -20 -31 -125 -15 -60 8 -379
39 -411 39 -6 0 -14 26 -17 59 -23 218 -201 418 -424 476 -72 19 -211 18 -282
-1z"/>
<path d="M2379 10967 c-158 -54 -268 -193 -285 -360 l-7 -65 -86 -16 c-47 -10
-135 -29 -194 -43 -60 -14 -109 -23 -111 -22 -1 2 -14 25 -29 50 -34 60 -96
115 -166 148 -48 22 -69 26 -151 26 -82 0 -103 -4 -152 -27 -147 -69 -237
-239 -209 -393 38 -206 233 -345 427 -305 105 22 183 73 238 155 41 61 66 141
66 210 l0 52 138 27 c75 14 162 32 193 40 l55 13 17 -46 c28 -78 103 -163 191
-216 14 -9 10 -29 -44 -191 -33 -100 -75 -237 -94 -305 l-34 -124 -53 -6 c-95
-10 -168 -60 -212 -143 -30 -57 -30 -165 0 -222 115 -217 425 -178 476 61 21
100 -26 212 -110 265 l-40 24 30 76 c34 86 138 390 162 472 l16 55 49 -9 c110
-20 262 33 350 122 125 124 159 314 85 478 -28 61 -110 151 -169 186 -102 59
-233 72 -347 33z"/>
<path d="M6059 10249 c-123 -18 -221 -114 -237 -231 -2 -22 -10 -41 -16 -43
-6 -1 -70 -11 -143 -20 -73 -9 -148 -20 -167 -25 l-36 -8 -31 65 c-42 88 -122
166 -218 212 -74 35 -79 36 -191 36 -109 0 -119 -2 -183 -32 -128 -61 -216
-158 -253 -282 l-18 -61 -142 0 -141 0 -17 44 c-64 167 -289 213 -414 85 -50
-50 -65 -86 -70 -164 -3 -62 -1 -76 25 -125 51 -97 144 -148 251 -137 97 10
176 74 209 169 l18 50 89 -6 c49 -3 110 -6 136 -6 l48 0 11 -62 c43 -244 279
-416 518 -378 225 36 393 235 393 465 l0 42 53 7 c51 7 235 42 269 52 13 4 22
-8 39 -46 46 -108 164 -177 283 -168 238 20 347 298 187 480 -57 65 -161 101
-252 87z"/>
<path d="M1114 9671 c-72 -33 -134 -126 -134 -203 0 -22 -10 -27 -124 -62 -69
-21 -169 -56 -222 -77 l-99 -39 -35 35 c-46 45 -97 65 -162 65 -69 -1 -125
-27 -170 -79 -93 -109 -67 -270 56 -346 42 -25 59 -30 116 -30 57 0 74 5 116
30 71 45 108 109 109 191 0 35 1 64 2 64 15 0 280 88 342 113 l84 34 34 -44
34 -44 -79 -132 c-114 -190 -214 -372 -342 -620 -61 -119 -115 -217 -119 -217
-4 0 -33 5 -64 11 -144 26 -303 -54 -370 -188 -76 -149 -48 -314 72 -426 181
-169 451 -119 568 105 25 48 28 63 28 153 -1 93 -3 104 -32 161 -18 34 -54 81
-81 106 l-50 44 93 162 c121 208 280 507 361 679 54 112 67 134 82 128 9 -4
40 -10 69 -12 126 -12 241 98 242 232 1 54 -38 135 -83 172 -66 54 -166 68
-242 34z"/>
<path d="M7025 8798 c-3 -13 -18 -93 -34 -178 -17 -85 -43 -225 -60 -310 -16
-85 -66 -344 -111 -575 -45 -231 -92 -476 -106 -545 -13 -69 -24 -133 -24
-142 0 -16 13 -18 140 -18 137 0 140 0 145 23 6 28 74 375 161 827 37 195 70
358 73 362 3 3 226 -274 496 -618 l489 -624 43 0 c26 0 45 5 48 13 2 6 30 143
60 302 31 160 72 371 91 470 19 99 39 203 44 230 5 28 25 131 44 230 19 99 49
251 65 338 17 87 34 169 37 182 l6 25 -144 0 -145 0 -26 -132 c-53 -269 -177
-906 -193 -995 -13 -67 -21 -90 -29 -83 -7 5 -229 287 -495 625 l-484 615 -43
0 c-36 0 -43 -4 -48 -22z"/>
<path d="M3765 8795 c-321 -59 -570 -243 -713 -530 -73 -146 -105 -291 -105
-470 2 -474 284 -769 758 -792 207 -10 370 22 585 113 58 24 111 48 118 53 10
6 6 32 -22 125 -19 65 -37 120 -40 123 -2 3 -40 -11 -84 -31 -196 -88 -306
-116 -464 -116 -176 0 -295 42 -400 139 -65 60 -97 108 -130 197 -19 51 -22
80 -22 219 -1 179 8 222 72 355 52 107 178 234 282 283 122 58 187 72 335 71
156 -1 242 -21 384 -89 52 -25 95 -44 96 -43 2 2 35 54 75 117 55 88 68 116
58 123 -41 28 -178 92 -245 114 -155 52 -379 68 -538 39z"/>
<path d="M5545 8800 c-132 -21 -305 -89 -415 -163 -61 -41 -173 -149 -225
-218 -259 -334 -274 -856 -33 -1146 95 -114 236 -201 393 -243 100 -26 299
-37 410 -21 413 59 725 341 827 748 31 124 31 361 0 478 -74 275 -254 460
-527 540 -74 22 -115 27 -230 30 -77 2 -167 0 -200 -5z m338 -280 c163 -50
278 -173 333 -356 27 -89 25 -284 -4 -387 -72 -252 -258 -440 -497 -502 -77
-20 -243 -20 -320 0 -268 69 -420 293 -402 595 8 119 27 192 79 298 47 96 146
209 235 268 72 48 188 93 267 104 87 12 235 3 309 -20z"/>
<path d="M10890 8798 c-118 -5 -215 -10 -217 -12 -4 -4 -30 -136 -198 -1006
-75 -388 -139 -715 -142 -727 l-5 -23 144 0 145 0 41 213 c23 116 51 266 63
332 12 66 25 123 28 127 3 4 80 8 170 9 l163 3 158 -340 157 -339 161 -3 c89
-1 162 0 162 3 0 3 -79 169 -175 368 -96 200 -175 366 -175 370 0 3 29 20 64
37 232 110 358 309 359 565 0 148 -29 229 -110 306 -73 68 -149 100 -286 119
-88 11 -194 11 -507 -2z m478 -255 c52 -7 102 -39 122 -78 23 -47 18 -177 -10
-249 -43 -113 -150 -197 -292 -231 -82 -20 -388 -33 -388 -17 0 13 84 449 101
525 8 35 16 48 33 52 57 13 332 12 434 -2z"/>
<path d="M12810 8796 c-321 -58 -577 -249 -721 -541 -76 -154 -102 -267 -102
-450 -1 -124 3 -164 22 -233 61 -231 185 -385 386 -482 149 -72 216 -85 420
-84 141 0 184 4 251 22 248 66 451 210 582 411 104 158 150 306 159 502 12
268 -51 464 -201 626 -96 104 -215 173 -366 214 -97 27 -322 34 -430 15z m340
-272 c131 -38 248 -132 304 -243 105 -207 82 -515 -55 -718 -97 -145 -243
-249 -406 -288 -99 -24 -272 -17 -363 14 -174 59 -294 194 -341 381 -19 75
-16 248 5 335 67 280 291 490 571 536 70 11 220 3 285 -17z"/>
<path d="M8865 8778 c-7 -23 -45 -217 -45 -232 0 -14 36 -16 315 -16 263 0
315 -2 315 -14 0 -8 -7 -47 -15 -87 -8 -41 -37 -193 -65 -339 -28 -146 -55
-285 -60 -310 -5 -25 -32 -164 -60 -310 -28 -146 -57 -296 -65 -334 -25 -115
-36 -106 124 -106 124 0 140 2 145 18 5 16 286 1467 286 1477 0 3 145 6 322 7
l321 3 23 115 c13 63 23 121 23 128 1 18 -1558 18 -1564 0z"/>
<path d="M14305 8778 c-5 -17 -27 -123 -64 -318 -83 -432 -137 -708 -201
-1039 -38 -200 -70 -370 -70 -377 0 -12 99 -14 627 -12 l627 3 23 119 c12 66
20 123 17 128 -3 4 -221 8 -485 8 -453 0 -480 1 -475 18 7 22 286 1466 286
1478 0 2 -63 4 -140 4 -104 0 -142 -3 -145 -12z"/>
<path d="M1670 8653 c-66 -11 -156 -49 -208 -87 -72 -53 -113 -104 -154 -193
-28 -58 -33 -82 -36 -164 -6 -145 28 -247 115 -340 l45 -48 -95 -133 c-103
-146 -327 -481 -398 -595 -31 -51 -48 -71 -59 -66 -94 36 -137 46 -210 50
-152 9 -277 -37 -392 -146 -284 -266 -188 -739 179 -882 80 -31 237 -38 319
-14 186 53 332 200 379 380 19 75 19 182 -1 265 -8 36 -11 66 -7 68 4 1 76 36
158 76 l150 73 33 -38 c90 -105 225 -123 339 -46 83 57 128 173 104 264 -54
201 -298 265 -434 113 -48 -54 -67 -103 -67 -178 0 -45 -2 -50 -26 -56 -14 -4
-89 -34 -166 -67 l-141 -60 -26 33 c-13 18 -45 52 -70 76 l-44 43 24 32 c100
134 491 720 502 751 2 5 34 -4 72 -19 91 -37 223 -46 311 -20 311 89 443 454
263 725 -96 143 -293 231 -459 203z"/>
<path d="M2290 6721 c-76 -25 -136 -78 -169 -151 -50 -110 -4 -248 106 -320
l23 -15 -49 -151 c-27 -82 -52 -164 -56 -182 -8 -36 -4 -36 -112 -21 -307 41
-617 -153 -727 -456 -24 -66 -30 -101 -34 -197 -9 -219 48 -369 197 -519 95
-95 156 -134 276 -175 71 -25 94 -28 210 -29 110 0 141 4 199 23 240 81 411
258 472 492 18 72 23 204 11 290 l-8 56 83 24 c46 13 146 45 223 70 l140 47
35 -60 c97 -166 306 -266 496 -237 266 41 460 303 416 563 -61 358 -455 538
-754 344 -154 -100 -237 -267 -226 -452 l6 -82 -97 -28 c-123 -35 -311 -92
-333 -100 -12 -5 -25 10 -54 67 -51 98 -183 230 -277 278 -43 22 -65 40 -62
48 10 28 85 339 85 355 0 14 10 17 53 17 177 0 301 204 221 363 -23 46 -72 95
-118 119 -43 22 -136 32 -176 19z"/>
<path d="M10620 6526 c-90 -24 -169 -91 -217 -186 -25 -49 -28 -65 -28 -155 0
-93 2 -105 33 -167 38 -77 92 -130 171 -166 46 -22 71 -27 141 -27 77 0 92 3
152 33 77 37 128 90 167 172 22 47 26 68 26 150 0 88 -3 101 -33 162 -76 155
-243 230 -412 184z m184 -179 c53 -30 86 -93 86 -164 0 -68 -18 -110 -63 -150
-82 -72 -209 -46 -256 51 -52 106 -8 242 89 279 36 13 106 6 144 -16z"/>
<path d="M9090 6180 l0 -340 85 0 85 0 0 110 0 110 80 0 c107 0 173 16 223 54
113 85 117 254 8 347 -60 52 -95 59 -300 59 l-181 0 0 -340z m360 170 c31 -31
27 -93 -6 -119 -22 -17 -41 -21 -105 -21 l-79 0 0 80 0 80 85 0 c72 0 88 -3
105 -20z"/>
<path d="M11762 6508 c2 -7 47 -160 99 -340 l94 -328 67 0 67 0 20 68 c11 37
34 117 52 177 17 61 33 111 35 113 2 3 79 -234 109 -335 6 -21 13 -23 73 -23
l67 0 95 327 c52 179 96 332 98 340 3 10 -17 13 -90 13 l-94 0 -38 -157 c-21
-87 -41 -161 -45 -165 -3 -4 -29 66 -57 155 l-50 162 -66 3 -67 3 -26 -88
c-57 -190 -69 -228 -75 -236 -4 -4 -24 67 -45 158 l-39 165 -94 0 c-71 0 -93
-3 -90 -12z"/>
<path d="M13390 6180 l0 -340 245 0 245 0 0 75 0 75 -160 0 -160 0 0 65 0 65
135 0 135 0 0 65 0 65 -135 0 -135 0 0 60 0 59 158 3 157 3 3 73 3 72 -246 0
-245 0 0 -340z"/>
<path d="M14660 6180 l0 -341 83 3 82 3 3 108 3 107 43 0 44 0 71 -110 70
-110 91 0 c55 0 90 4 90 10 0 6 -31 57 -68 113 -38 56 -71 107 -75 113 -4 7
10 23 34 38 27 19 48 44 65 79 42 91 27 185 -41 253 -64 64 -108 74 -317 74
l-178 0 0 -340z m335 185 c58 -23 70 -90 25 -135 -17 -17 -34 -20 -105 -20
l-85 0 0 85 0 85 65 0 c36 0 81 -7 100 -15z"/>
<path d="M5570 6460 c-105 -36 -181 -158 -166 -268 33 -244 353 -305 472 -90
38 69 41 170 7 234 -31 58 -93 110 -154 128 -67 20 -91 20 -159 -4z"/>
<path d="M4507 5966 c-138 -51 -216 -184 -187 -320 28 -137 171 -243 300 -222
37 6 38 5 44 -28 4 -18 31 -106 60 -195 l54 -161 -53 -35 c-139 -93 -215 -270
-187 -435 29 -168 139 -298 300 -351 96 -32 223 -25 312 18 172 82 270 244
258 430 -9 134 -68 245 -173 325 -84 64 -144 82 -267 83 l-106 0 -37 109 c-21
59 -52 145 -70 189 l-33 81 38 28 c21 15 51 48 66 73 22 38 31 45 48 41 203
-59 613 -151 821 -186 l70 -11 1 -65 c2 -119 76 -228 193 -286 69 -34 196 -33
271 3 67 31 131 94 162 157 34 70 37 187 7 267 -30 79 -105 155 -186 185 -76
29 -196 25 -261 -9 -60 -31 -125 -92 -148 -141 -10 -22 -22 -40 -25 -40 -4 0
-98 22 -210 49 -181 44 -436 97 -630 131 l-66 12 -7 56 c-17 147 -120 250
-261 259 -36 2 -75 -2 -98 -11z"/>
<path d="M699 5902 c-162 -84 -186 -297 -47 -416 40 -35 118 -66 164 -66 12 0
46 8 75 17 113 36 191 158 174 271 -27 178 -210 275 -366 194z"/>
<path d="M3410 4627 c-184 -52 -287 -260 -219 -441 27 -73 96 -148 167 -183
76 -37 201 -40 274 -6 71 32 141 103 173 174 25 56 27 70 23 148 -3 67 -10 97
-30 136 -32 61 -103 130 -164 156 -57 25 -165 33 -224 16z"/>
</g>
</svg>
